<mxfile host="app.diagrams.net" modified="2023-07-06T03:58:03.751Z" agent="Mozilla/5.0 (Windows NT 10.0; Win64; x64) AppleWebKit/537.36 (KHTML, like Gecko) Chrome/114.0.0.0 Safari/537.36" etag="l5S_XX37Ii_wvzGTpWpC" version="21.5.0" type="github">
  <diagram name="Página-1" id="5buqvQESy5piFprUBFC6">
    <mxGraphModel dx="1122" dy="741" grid="1" gridSize="10" guides="1" tooltips="1" connect="1" arrows="1" fold="1" page="1" pageScale="1" pageWidth="827" pageHeight="1169" math="0" shadow="0">
      <root>
        <mxCell id="0" />
        <mxCell id="1" parent="0" />
        <mxCell id="qCWlScW4WdZnJxcrdLhM-10" style="rounded=0;orthogonalLoop=1;jettySize=auto;html=1;endArrow=none;endFill=0;" edge="1" parent="1" source="qCWlScW4WdZnJxcrdLhM-1" target="qCWlScW4WdZnJxcrdLhM-8">
          <mxGeometry relative="1" as="geometry" />
        </mxCell>
        <mxCell id="qCWlScW4WdZnJxcrdLhM-12" style="rounded=0;orthogonalLoop=1;jettySize=auto;html=1;endArrow=none;endFill=0;" edge="1" parent="1" source="qCWlScW4WdZnJxcrdLhM-1" target="qCWlScW4WdZnJxcrdLhM-9">
          <mxGeometry relative="1" as="geometry" />
        </mxCell>
        <mxCell id="qCWlScW4WdZnJxcrdLhM-26" style="rounded=0;orthogonalLoop=1;jettySize=auto;html=1;endArrow=none;endFill=0;" edge="1" parent="1" source="qCWlScW4WdZnJxcrdLhM-1" target="qCWlScW4WdZnJxcrdLhM-25">
          <mxGeometry relative="1" as="geometry" />
        </mxCell>
        <mxCell id="qCWlScW4WdZnJxcrdLhM-41" style="rounded=0;orthogonalLoop=1;jettySize=auto;html=1;" edge="1" parent="1" source="qCWlScW4WdZnJxcrdLhM-1" target="qCWlScW4WdZnJxcrdLhM-40">
          <mxGeometry relative="1" as="geometry" />
        </mxCell>
        <mxCell id="qCWlScW4WdZnJxcrdLhM-1" value="Usuario" style="shape=umlActor;verticalLabelPosition=bottom;verticalAlign=top;html=1;outlineConnect=0;" vertex="1" parent="1">
          <mxGeometry x="170" y="280" width="30" height="60" as="geometry" />
        </mxCell>
        <mxCell id="qCWlScW4WdZnJxcrdLhM-6" style="rounded=0;orthogonalLoop=1;jettySize=auto;html=1;" edge="1" parent="1" source="qCWlScW4WdZnJxcrdLhM-2" target="qCWlScW4WdZnJxcrdLhM-1">
          <mxGeometry relative="1" as="geometry" />
        </mxCell>
        <mxCell id="qCWlScW4WdZnJxcrdLhM-2" value="Candidato" style="shape=umlActor;verticalLabelPosition=bottom;verticalAlign=top;html=1;outlineConnect=0;" vertex="1" parent="1">
          <mxGeometry x="190" y="400" width="30" height="60" as="geometry" />
        </mxCell>
        <mxCell id="qCWlScW4WdZnJxcrdLhM-7" style="rounded=0;orthogonalLoop=1;jettySize=auto;html=1;endArrow=classic;endFill=1;" edge="1" parent="1" source="qCWlScW4WdZnJxcrdLhM-3" target="qCWlScW4WdZnJxcrdLhM-1">
          <mxGeometry relative="1" as="geometry" />
        </mxCell>
        <mxCell id="qCWlScW4WdZnJxcrdLhM-3" value="Votante" style="shape=umlActor;verticalLabelPosition=bottom;verticalAlign=top;html=1;outlineConnect=0;" vertex="1" parent="1">
          <mxGeometry x="120" y="400" width="30" height="60" as="geometry" />
        </mxCell>
        <mxCell id="qCWlScW4WdZnJxcrdLhM-8" value="Login" style="ellipse;whiteSpace=wrap;html=1;" vertex="1" parent="1">
          <mxGeometry x="280" y="200" width="120" height="80" as="geometry" />
        </mxCell>
        <mxCell id="qCWlScW4WdZnJxcrdLhM-9" value="Registro al Sistema" style="ellipse;whiteSpace=wrap;html=1;" vertex="1" parent="1">
          <mxGeometry x="280" y="300" width="120" height="80" as="geometry" />
        </mxCell>
        <mxCell id="qCWlScW4WdZnJxcrdLhM-14" value="Registrar Candidatura&lt;br&gt;" style="ellipse;whiteSpace=wrap;html=1;" vertex="1" parent="1">
          <mxGeometry x="270" y="500" width="120" height="80" as="geometry" />
        </mxCell>
        <mxCell id="qCWlScW4WdZnJxcrdLhM-18" style="rounded=0;orthogonalLoop=1;jettySize=auto;html=1;endArrow=none;endFill=0;" edge="1" parent="1" source="qCWlScW4WdZnJxcrdLhM-15" target="qCWlScW4WdZnJxcrdLhM-14">
          <mxGeometry relative="1" as="geometry">
            <Array as="points">
              <mxPoint x="570" y="470" />
              <mxPoint x="430" y="470" />
            </Array>
          </mxGeometry>
        </mxCell>
        <mxCell id="qCWlScW4WdZnJxcrdLhM-34" style="rounded=0;orthogonalLoop=1;jettySize=auto;html=1;endArrow=none;endFill=0;" edge="1" parent="1" source="qCWlScW4WdZnJxcrdLhM-15" target="qCWlScW4WdZnJxcrdLhM-33">
          <mxGeometry relative="1" as="geometry" />
        </mxCell>
        <mxCell id="qCWlScW4WdZnJxcrdLhM-42" style="rounded=0;orthogonalLoop=1;jettySize=auto;html=1;endArrow=none;endFill=0;" edge="1" parent="1" source="qCWlScW4WdZnJxcrdLhM-15" target="qCWlScW4WdZnJxcrdLhM-38">
          <mxGeometry relative="1" as="geometry" />
        </mxCell>
        <mxCell id="qCWlScW4WdZnJxcrdLhM-15" value="Tribunal Electoral&lt;br&gt;" style="shape=umlActor;verticalLabelPosition=bottom;verticalAlign=top;html=1;outlineConnect=0;" vertex="1" parent="1">
          <mxGeometry x="670" y="320" width="30" height="60" as="geometry" />
        </mxCell>
        <mxCell id="qCWlScW4WdZnJxcrdLhM-29" style="rounded=0;orthogonalLoop=1;jettySize=auto;html=1;endArrow=none;endFill=0;" edge="1" parent="1" source="qCWlScW4WdZnJxcrdLhM-21" target="qCWlScW4WdZnJxcrdLhM-22">
          <mxGeometry relative="1" as="geometry" />
        </mxCell>
        <mxCell id="qCWlScW4WdZnJxcrdLhM-30" style="rounded=0;orthogonalLoop=1;jettySize=auto;html=1;endArrow=none;endFill=0;" edge="1" parent="1" source="qCWlScW4WdZnJxcrdLhM-21" target="qCWlScW4WdZnJxcrdLhM-28">
          <mxGeometry relative="1" as="geometry" />
        </mxCell>
        <mxCell id="qCWlScW4WdZnJxcrdLhM-36" style="rounded=0;orthogonalLoop=1;jettySize=auto;html=1;endArrow=none;endFill=0;" edge="1" parent="1" source="qCWlScW4WdZnJxcrdLhM-21" target="qCWlScW4WdZnJxcrdLhM-35">
          <mxGeometry relative="1" as="geometry" />
        </mxCell>
        <mxCell id="qCWlScW4WdZnJxcrdLhM-21" value="Sistema Votacion" style="shape=umlActor;verticalLabelPosition=bottom;verticalAlign=top;html=1;outlineConnect=0;" vertex="1" parent="1">
          <mxGeometry x="670" y="450" width="30" height="60" as="geometry" />
        </mxCell>
        <mxCell id="qCWlScW4WdZnJxcrdLhM-27" style="rounded=0;orthogonalLoop=1;jettySize=auto;html=1;endArrow=none;endFill=0;" edge="1" parent="1" source="qCWlScW4WdZnJxcrdLhM-23" target="qCWlScW4WdZnJxcrdLhM-24">
          <mxGeometry relative="1" as="geometry" />
        </mxCell>
        <mxCell id="qCWlScW4WdZnJxcrdLhM-32" style="rounded=0;orthogonalLoop=1;jettySize=auto;html=1;endArrow=none;endFill=0;" edge="1" parent="1" source="qCWlScW4WdZnJxcrdLhM-23" target="qCWlScW4WdZnJxcrdLhM-31">
          <mxGeometry relative="1" as="geometry" />
        </mxCell>
        <mxCell id="qCWlScW4WdZnJxcrdLhM-23" value="Administrador&lt;br&gt;" style="shape=umlActor;verticalLabelPosition=bottom;verticalAlign=top;html=1;outlineConnect=0;" vertex="1" parent="1">
          <mxGeometry x="670" y="180" width="30" height="60" as="geometry" />
        </mxCell>
        <mxCell id="qCWlScW4WdZnJxcrdLhM-25" value="Emitir Voto" style="ellipse;whiteSpace=wrap;html=1;" vertex="1" parent="1">
          <mxGeometry x="280" y="400" width="120" height="80" as="geometry" />
        </mxCell>
        <mxCell id="qCWlScW4WdZnJxcrdLhM-40" value="Consultar Resultados Votaciones" style="ellipse;whiteSpace=wrap;html=1;" vertex="1" parent="1">
          <mxGeometry x="280" y="110" width="120" height="80" as="geometry" />
        </mxCell>
        <mxCell id="qCWlScW4WdZnJxcrdLhM-43" value="Sistema Votacion" style="shape=umlFrame;whiteSpace=wrap;html=1;pointerEvents=0;recursiveResize=0;container=1;collapsible=0;width=160;" vertex="1" parent="1">
          <mxGeometry x="244" y="80" width="386" height="670" as="geometry" />
        </mxCell>
        <mxCell id="qCWlScW4WdZnJxcrdLhM-31" value="Gestionar Cuentas" style="ellipse;whiteSpace=wrap;html=1;" vertex="1" parent="qCWlScW4WdZnJxcrdLhM-43">
          <mxGeometry x="206" y="10" width="120" height="80" as="geometry" />
        </mxCell>
        <mxCell id="qCWlScW4WdZnJxcrdLhM-24" value="Emite Plazo de Votación" style="ellipse;whiteSpace=wrap;html=1;" vertex="1" parent="qCWlScW4WdZnJxcrdLhM-43">
          <mxGeometry x="206" y="100" width="120" height="80" as="geometry" />
        </mxCell>
        <mxCell id="qCWlScW4WdZnJxcrdLhM-33" value="Mostrar Resultado&amp;nbsp; Votaciones" style="ellipse;whiteSpace=wrap;html=1;" vertex="1" parent="qCWlScW4WdZnJxcrdLhM-43">
          <mxGeometry x="206" y="190" width="120" height="80" as="geometry" />
        </mxCell>
        <mxCell id="qCWlScW4WdZnJxcrdLhM-38" value="Configura el Registro Electoral" style="ellipse;whiteSpace=wrap;html=1;" vertex="1" parent="qCWlScW4WdZnJxcrdLhM-43">
          <mxGeometry x="206" y="290" width="120" height="80" as="geometry" />
        </mxCell>
        <mxCell id="qCWlScW4WdZnJxcrdLhM-22" value="Contar Votos" style="ellipse;whiteSpace=wrap;html=1;" vertex="1" parent="qCWlScW4WdZnJxcrdLhM-43">
          <mxGeometry x="206" y="400" width="120" height="80" as="geometry" />
        </mxCell>
        <mxCell id="qCWlScW4WdZnJxcrdLhM-28" value="Generar Reportes" style="ellipse;whiteSpace=wrap;html=1;" vertex="1" parent="qCWlScW4WdZnJxcrdLhM-43">
          <mxGeometry x="206" y="490" width="120" height="80" as="geometry" />
        </mxCell>
        <mxCell id="qCWlScW4WdZnJxcrdLhM-35" value="Emite Comprobante de voto" style="ellipse;whiteSpace=wrap;html=1;" vertex="1" parent="qCWlScW4WdZnJxcrdLhM-43">
          <mxGeometry x="206" y="580" width="120" height="80" as="geometry" />
        </mxCell>
      </root>
    </mxGraphModel>
  </diagram>
</mxfile>
